<?xml version="1.0" encoding="utf-8"?>
<!-- Generator: Adobe Illustrator 25.2.3, SVG Export Plug-In . SVG Version: 6.00 Build 0)  -->
<svg version="1.1" id="Capa_1" xmlns="http://www.w3.org/2000/svg" xmlns:xlink="http://www.w3.org/1999/xlink" x="0px" y="0px"
	 viewBox="0 0 1200 400" style="enable-background:new 0 0 1200 400;" xml:space="preserve">
<style type="text/css">
	.st0{fill:#0F0F19;}
	.st1{fill:#161625;}
</style>
<g>
	<path class="st0" d="M1202.47,87.27c-0.42-0.91-0.8-1.75-0.95-2.73c-0.15-0.97-0.24-1.89-0.24-2.86c0-0.61,0.13-1.18,0.32-1.71
		c-0.76-6.33-0.32-13.05-0.14-17.65c0.24-6.25,1-12.54,0.76-18.79c-0.43-10.99-1.51-21.92-1.85-32.91
		c-31.39,27.16-63.3,54.33-100.27,73.14c-38.13,19.4-82.78,29.32-124.14,18.39c-20.85-5.51-39.98-16.01-59.97-24.09
		c-61.69-24.94-132.64-26.12-195.12-3.24c-31.42,11.5-60.55,28.75-92.31,39.3c-57.53,19.1-122.52,14.59-176.86-12.3
		c-30.63-15.15-58.58-37.28-92.05-44.2c-64.13-13.25-125.64,32.48-190.95,37.13c-50.62,3.6-102.38-19.66-133.3-59.9
		C25.25,21.66,16.59,6.22,1.85-1.51V400H1200l2.64-312.44C1202.58,87.47,1202.52,87.37,1202.47,87.27z"/>
	<g>
		<path class="st1" d="M1204.63,86.01c-1.1-2.55-0.58-5.45-0.74-8.16c-0.18-3.12-0.25-6.22-0.17-9.34
			c0.15-5.99,0.66-11.95,0.92-17.94c0.58-13.3-1.3-26.67-1.78-39.96c-0.08-2.25-2.63-3.18-4.27-1.77
			c-33.72,29.17-68.32,58.73-109.27,77.33c-41.24,18.73-87.2,24.36-130.08,7.84c-20.4-7.86-39.7-18.16-60.56-24.88
			c-20.41-6.57-41.63-10.67-63.01-12.33c-43.55-3.38-87.34,3.69-127.67,20.37c-20.51,8.48-40.24,18.74-60.74,27.25
			c-20.53,8.52-41.9,14.61-64.01,17.23c-42.95,5.09-87.43-1.72-126.59-20.2c-36.51-17.23-68.81-44.7-110.46-48.28
			c-39.98-3.44-78.3,12.89-115.49,25.05c-19.53,6.39-39.52,12.16-60.07,13.87c-19.56,1.63-39.3-0.74-58.01-6.66
			C93.62,79.43,75.68,69.75,60.3,57.03C45.12,44.46,34.9,28.76,22.7,13.58C17.16,6.7,10.88,0.62,3.11-3.67
			C1.46-4.58-0.65-3.44-0.65-1.51c0,45.27,0,90.55,0,135.82c0,72.1,0,144.2,0,216.3c0,16.46,0,32.92,0,49.39
			c0,1.35,1.15,2.5,2.5,2.5c10.66,0,21.31,0,31.97,0c29.13,0,58.26,0,87.39,0c42.94,0,85.89,0,128.83,0c52.57,0,105.15,0,157.72,0
			c57.39,0,114.77,0,172.16,0c57.92,0,115.84,0,173.76,0c54.01,0,108.01,0,162.02,0c45.65,0,91.3,0,136.94,0
			c32.84,0,65.69,0,98.53,0c15.6,0,31.23,0.23,46.83,0c0.66-0.01,1.33,0,1.99,0c1.36,0,2.49-1.15,2.5-2.5
			c0.3-35.74,0.6-71.48,0.91-107.22c0.47-56.18,0.95-112.37,1.42-168.55c0.08-9.1,0.15-18.2,0.23-27.3
			C1205.09,94.01,1206.19,88.72,1204.63,86.01c-1.6-2.79-5.92-0.27-4.32,2.52c-0.77-1.34-0.14-0.19-0.19,1.18
			c-0.07,2.04-0.03,4.09-0.05,6.14c-0.06,7.64-0.13,15.28-0.19,22.92c-0.21,24.96-0.42,49.92-0.63,74.88
			c-0.47,55.89-0.94,111.77-1.42,167.66c-0.11,12.9-0.22,25.8-0.33,38.7c0.83-0.83,1.67-1.67,2.5-2.5c-10.66,0-21.31,0-31.97,0
			c-29.13,0-58.26,0-87.39,0c-42.94,0-85.89,0-128.83,0c-52.57,0-105.15,0-157.72,0c-57.39,0-114.77,0-172.16,0
			c-57.92,0-115.84,0-173.76,0c-54.01,0-108.01,0-162.02,0c-45.65,0-91.3,0-136.94,0c-32.84,0-65.69,0-98.53,0
			c-10.28,0-20.57,0-30.85,0c-5.21,0-10.79-0.57-15.98,0c-0.65,0.07-1.34,0-1.99,0c0.83,0.83,1.67,1.67,2.5,2.5
			c0-45.27,0-90.55,0-135.82c0-72.1,0-144.2,0-216.3c0-16.46,0-32.92,0-49.39C3.1-0.79,1.84-0.07,0.59,0.65
			c17.68,9.75,26.55,29.19,39.53,43.83c12.63,14.25,28.04,26.08,44.92,34.87c34.38,17.91,72.87,22.07,110.57,13.93
			c40.34-8.71,77.89-27.99,118.88-33.97c21.24-3.1,42.48-1.48,62.66,6.04c19.95,7.43,37.95,19.13,56.38,29.58
			c36.85,20.91,77.3,32.97,119.83,33.35c21.2,0.19,42.49-2.44,62.98-7.91c21.45-5.72,41.66-14.96,61.72-24.31
			c20.75-9.67,41.53-19.19,63.66-25.32c21.96-6.09,44.66-9.32,67.43-9.73c22.78-0.41,45.58,2,67.76,7.25
			c22.19,5.25,42.75,13.99,63.51,23.22c19.69,8.76,39.6,15.88,61.27,17.35c21.54,1.46,43.29-1.86,63.84-8.26
			c41.82-13.01,77.88-38.89,111.22-66.57c8.55-7.1,16.96-14.35,25.36-21.62c-1.42-0.59-2.85-1.18-4.27-1.77
			c0.54,14.9,2.44,29.74,1.5,44.66c-0.38,6.09-0.81,12.22-0.68,18.32c0.11,5.07-0.42,10.19,1.62,14.93
			C1201.58,91.48,1205.89,88.93,1204.63,86.01z"/>
	</g>
</g>
</svg>
